Coordinates
version=1
nRows=17
nColumns=63
inDegrees=yes

Units are S.I. units (second, meters, Newtons, ...)
If the header above contains a line with 'inDegrees', this indicates whether rotational values are in degrees (yes) or radians (no).

endheader
time	pelvis_tilt	pelvis_list	pelvis_rotation	pelvis_tx	pelvis_ty	pelvis_tz	hip_flexion_r	hip_adduction_r	hip_rotation_r	knee_angle_r	knee_angle_r_beta	ankle_angle_r	subtalar_angle_r	mtp_angle_r	hip_flexion_l	hip_adduction_l	hip_rotation_l	knee_angle_l	knee_angle_l_beta	ankle_angle_l	subtalar_angle_l	mtp_angle_l	L5_S1_Flex_Ext	L5_S1_Lat_Bending	L5_S1_axial_rotation	L4_L5_Flex_Ext	L4_L5_Lat_Bending	L4_L5_axial_rotation	L3_L4_Flex_Ext	L3_L4_Lat_Bending	L3_L4_axial_rotation	L2_L3_Flex_Ext	L2_L3_Lat_Bending	L2_L3_axial_rotation	L1_L2_Flex_Ext	L1_L2_Lat_Bending	L1_L2_axial_rotation	L1_T12_Flex_Ext	L1_T12_Lat_Bending	L1_T12_axial_rotation	Abs_r3	Abs_r2	Abs_r1	Abs_t1	Abs_t2	neck_flexion	neck_bending	neck_rotation	arm_flex_r	arm_add_r	arm_rot_r	elbow_flex_r	pro_sup_r	wrist_flex_r	wrist_dev_r	arm_flex_l	arm_add_l	arm_rot_l	elbow_flex_l	pro_sup_l	wrist_flex_l	wrist_dev_l
2.750000	-5.024244	-4.375078	66.659078	0.267874	0.397132	0.938957	1.483231	0.093077	16.173124	4.160961	0.072622	27.135482	-10.177660	0.000000	3.827463	-0.673793	-17.040071	10.755744	0.187723	34.494885	6.266183	0.000000	-0.150131	-0.515366	2.545779	-0.278809	-0.685437	2.704890	-0.246651	-1.253060	2.704890	-0.171585	-1.253060	2.227556	-0.139412	-1.050934	2.068445	-0.085785	-0.798302	1.909334	-1.072373	-5.829921	14.158857	0.000000	0.000000	15.865727	11.329308	-11.734196	103.207634	-108.016719	111.866905	11.745264	8.186447	-8.194412	8.048277	-138.941481	-83.837928	-32.370590	3.276192	55.837584	-12.384068	6.606969
2.766667	-4.880292	-4.413616	66.548094	0.268194	0.397131	0.938703	1.427501	0.249824	16.687193	4.044680	0.070593	27.119003	-10.506678	0.000000	3.757063	-0.866207	-17.428128	10.797225	0.188447	34.518730	6.659964	0.000000	-0.149424	-0.493030	2.575138	-0.277496	-0.655730	2.736085	-0.245489	-1.198754	2.736085	-0.170777	-1.198754	2.253246	-0.138755	-1.005387	2.092300	-0.085381	-0.763704	1.931354	-1.067322	-5.577257	14.322147	0.000000	0.000000	15.709756	11.355887	-11.531460	103.426947	-108.256835	108.640564	12.320214	8.333791	-8.757650	8.120395	-139.117724	-84.109538	-30.698484	3.066625	58.968027	-12.390295	7.459321
2.783333	-4.739167	-4.422876	66.426560	0.268570	0.397184	0.938328	1.326382	0.389577	17.288241	3.894187	0.067966	27.068081	-10.916946	0.000000	3.641360	-1.035676	-17.783542	10.802341	0.188536	34.557052	7.026350	0.000000	-0.149083	-0.471208	2.605500	-0.276861	-0.626706	2.768344	-0.244928	-1.145694	2.768344	-0.170387	-1.145694	2.279813	-0.138438	-0.960886	2.116969	-0.085186	-0.729900	1.954125	-1.064882	-5.330394	14.491012	0.000000	0.000000	15.461312	11.377119	-11.295163	103.356924	-108.373425	106.263353	12.768179	8.444690	-9.191437	8.062891	-139.141354	-84.365741	-29.708413	2.845264	61.892766	-12.359678	8.088461
2.800000	-4.627673	-4.397517	66.304862	0.269049	0.397269	0.937843	1.185426	0.488452	17.908137	3.730143	0.065103	26.973606	-11.378549	0.000000	3.486411	-1.155810	-18.099833	10.771414	0.187997	34.590263	7.351437	0.000000	-0.148554	-0.454671	2.634253	-0.275879	-0.604712	2.798894	-0.244059	-1.105486	2.798894	-0.169782	-1.105486	2.304971	-0.137947	-0.927164	2.140331	-0.084884	-0.704285	1.975690	-1.061105	-5.143325	14.650925	0.000000	0.000000	15.138894	11.432279	-11.043930	103.029378	-108.340208	105.067892	13.043990	8.509909	-9.487049	7.803966	-139.145821	-84.549102	-29.062333	2.646006	63.389192	-12.186861	8.423073
2.816667	-4.536280	-4.339233	66.166605	0.269582	0.397373	0.937248	1.007480	0.552595	18.524246	3.575552	0.062405	26.819611	-11.877533	0.000000	3.290245	-1.233283	-18.395487	10.703610	0.186813	34.622473	7.627222	0.000000	-0.147955	-0.440702	2.657526	-0.274768	-0.586134	2.823621	-0.243076	-1.071524	2.823621	-0.169098	-1.071524	2.325335	-0.137391	-0.898680	2.159240	-0.084542	-0.682648	1.993145	-1.056831	-4.985314	14.780363	0.000000	0.000000	14.737931	11.493105	-10.712100	102.325331	-108.100343	105.026882	13.143958	8.501523	-9.626470	7.339935	-138.511556	-84.650405	-28.283615	2.473086	63.667331	-11.943791	8.489207
2.833333	-4.481434	-4.242646	66.021076	0.270160	0.397497	0.936591	0.799937	0.566774	19.116131	3.448618	0.060190	26.602721	-12.428253	0.000000	3.061526	-1.246806	-18.603822	10.599431	0.184995	34.634860	7.758940	0.000000	-0.148553	-0.432397	2.677223	-0.275878	-0.575088	2.844550	-0.244058	-1.051330	2.844550	-0.169781	-1.051330	2.342570	-0.137947	-0.881744	2.175244	-0.084883	-0.669783	2.007917	-1.061101	-4.891360	14.889913	0.000000	0.000000	14.286991	11.563582	-10.361176	101.341895	-107.678012	106.290194	13.051047	8.358521	-9.603866	6.702496	-137.625429	-84.670438	-27.754616	2.348002	62.864732	-11.665684	8.356461
2.850000	-4.458511	-4.107191	65.873245	0.270765	0.397647	0.935853	0.555110	0.532791	19.674586	3.344880	0.058379	26.329710	-13.020323	0.000000	2.792753	-1.197527	-18.717300	10.449914	0.182385	34.631152	7.744038	0.000000	-0.149978	-0.429576	2.694728	-0.278524	-0.571335	2.863149	-0.246399	-1.044470	2.863149	-0.171410	-1.044470	2.357887	-0.139270	-0.875990	2.189467	-0.085697	-0.665412	2.021046	-1.071278	-4.859444	14.987271	0.000000	0.000000	13.767917	11.650214	-10.003900	100.106662	-107.122626	108.678690	12.808201	8.145788	-9.433527	5.935197	-136.621754	-84.621336	-27.572154	2.271607	61.350718	-11.387791	8.057438
2.866667	-4.446721	-3.946401	65.736761	0.271346	0.397813	0.935121	0.299011	0.474068	19.997698	3.294183	0.057494	26.087959	-13.381096	0.000000	2.506793	-1.120929	-18.800721	10.292950	0.179646	34.628925	7.654257	0.000000	-0.154122	-0.429917	2.709077	-0.286220	-0.571789	2.878395	-0.253207	-1.045300	2.878395	-0.176146	-1.045300	2.370443	-0.143118	-0.876686	2.201125	-0.088065	-0.665941	2.031808	-1.100878	-4.863304	15.067075	0.000000	0.000000	13.260817	11.744401	-9.686430	98.732816	-106.524782	111.543165	12.517089	8.154492	-9.199744	5.180073	-135.606921	-84.509742	-27.832739	2.266997	59.405478	-11.196637	7.615952
2.883333	-4.447137	-3.772922	65.613999	0.271913	0.397985	0.934417	0.046320	0.399812	20.183483	3.287614	0.057380	25.868276	-13.625597	0.000000	2.220203	-1.023572	-18.852655	10.149072	0.177135	34.621849	7.475115	0.000000	-0.159321	-0.434433	2.721540	-0.295875	-0.577796	2.891636	-0.261749	-1.056281	2.891636	-0.182088	-1.056281	2.381347	-0.147946	-0.885896	2.211251	-0.091036	-0.672937	2.041155	-1.138016	-4.914394	15.136387	0.000000	0.000000	12.786426	11.856289	-9.461910	97.457091	-105.948887	114.738904	12.194991	8.019467	-8.935361	4.491483	-134.846629	-84.351024	-28.244266	2.289860	57.212179	-11.133356	7.074402
2.900000	-4.450506	-3.591975	65.541531	0.272450	0.398156	0.933724	-0.213842	0.321590	20.201364	3.293678	0.057486	25.692959	-13.726308	0.000000	1.930118	-0.919235	-18.879663	10.023427	0.174942	34.592324	7.257185	0.000000	-0.165247	-0.442398	2.731148	-0.306880	-0.588390	2.901845	-0.271484	-1.075647	2.901845	-0.188860	-1.075647	2.389755	-0.153448	-0.902139	2.219058	-0.094422	-0.685275	2.048361	-1.180340	-5.004498	15.189828	0.000000	0.000000	12.368125	11.984977	-9.362245	96.361005	-105.472910	118.122051	11.849898	7.647400	-8.685041	3.932739	-134.998112	-84.188347	-29.106092	2.370664	54.958525	-11.182365	6.580137
2.916667	-4.402447	-3.427775	65.526874	0.272815	0.398327	0.933024	-0.480277	0.294380	20.100878	3.295407	0.057516	25.545534	-13.732167	0.000000	1.643261	-0.867066	-18.906937	9.938047	0.173452	34.544732	7.041031	0.000000	-0.171473	-0.442867	2.726442	-0.318443	-0.589013	2.896844	-0.281714	-1.076787	2.896844	-0.195977	-1.076787	2.385636	-0.159230	-0.903095	2.215234	-0.097980	-0.686001	2.044831	-1.224818	-5.009801	15.163651	0.000000	0.000000	11.987109	12.045827	-9.248534	95.402810	-105.061100	120.986605	11.521368	7.321402	-8.545008	3.622822	-134.458609	-84.039795	-29.462057	2.433142	53.867416	-11.376154	6.227616
2.933333	-4.333823	-3.279631	65.565074	0.273128	0.398479	0.932376	-0.738201	0.298581	19.921427	3.288517	0.057395	25.433903	-13.674262	0.000000	1.372569	-0.860125	-19.068088	9.906026	0.172893	34.490532	7.019660	0.000000	-0.177600	-0.441981	2.716776	-0.329821	-0.587835	2.886575	-0.291779	-1.074633	2.886575	-0.202979	-1.074633	2.377179	-0.164919	-0.901288	2.207381	-0.101481	-0.684629	2.037582	-1.268579	-4.999779	15.109895	0.000000	0.000000	11.677521	12.093758	-9.204881	94.749317	-104.803021	123.368292	11.210587	7.101116	-8.492455	3.546107	-134.320309	-83.927949	-29.750062	2.508523	53.703965	-11.680062	6.073173
2.950000	-4.243364	-3.154656	65.664769	0.273360	0.398606	0.931773	-0.979176	0.335006	19.637509	3.273475	0.057133	25.372753	-13.509255	0.000000	1.129927	-0.895756	-19.285556	9.925713	0.173236	34.423106	7.128603	0.000000	-0.183232	-0.438409	2.695825	-0.340280	-0.583085	2.864314	-0.301032	-1.065949	2.864314	-0.209416	-1.065949	2.358847	-0.170149	-0.894005	2.190358	-0.104699	-0.679096	2.021868	-1.308809	-4.959376	14.993368	0.000000	0.000000	11.432169	12.121173	-9.171326	94.337385	-104.657752	125.314136	10.924003	6.889950	-8.504843	3.715550	-134.166584	-83.850395	-29.053157	2.567202	54.394022	-12.007611	6.280256
2.966667	-4.136716	-3.059356	65.826438	0.273542	0.398696	0.931265	-1.189899	0.404331	19.220066	3.253444	0.056783	25.362148	-13.222918	0.000000	0.931272	-0.977522	-19.586178	9.997920	0.174497	34.348575	7.400908	0.000000	-0.188982	-0.433337	2.661285	-0.350959	-0.576339	2.827615	-0.310479	-1.053617	2.827615	-0.215988	-1.053617	2.328624	-0.175489	-0.883662	2.162294	-0.107984	-0.671240	1.995964	-1.349881	-4.901999	14.801267	0.000000	0.000000	11.286191	12.140040	-9.175891	94.152017	-104.586693	127.008623	10.642317	6.729306	-8.520502	4.075561	-133.957555	-83.771992	-27.604686	2.615455	55.825638	-12.387261	6.773243
2.983333	-4.012958	-2.989471	66.034152	0.273672	0.398752	0.930743	-1.407956	0.502692	19.001733	3.174081	0.055398	25.284355	-13.223864	0.000000	0.762173	-1.100947	-19.957939	10.102594	0.176324	34.293380	7.857709	0.000000	-0.192275	-0.424494	2.620967	-0.357073	-0.564577	2.784778	-0.315888	-1.032115	2.784778	-0.219751	-1.032115	2.293347	-0.178546	-0.865628	2.129536	-0.109866	-0.657541	1.965726	-1.373399	-4.801962	14.577035	0.000000	0.000000	11.135879	12.140256	-9.124564	94.037620	-104.606472	128.134038	10.435371	6.583453	-8.550812	4.564949	-133.777496	-83.768085	-25.262799	2.628669	58.212519	-12.742928	7.733336
3.000000	-3.905166	-2.943987	66.288183	0.273779	0.398780	0.930265	-1.601728	0.597408	18.809120	3.068498	0.053555	25.226386	-13.260425	0.000000	0.642670	-1.226441	-20.283765	10.225070	0.178461	34.238019	8.352638	0.000000	-0.194284	-0.417203	2.570956	-0.360806	-0.554879	2.731640	-0.319190	-1.014386	2.731640	-0.222048	-1.014386	2.249586	-0.180412	-0.850759	2.088901	-0.111014	-0.646247	1.928217	-1.387754	-4.719479	14.298883	0.000000	0.000000	11.037266	12.147565	-9.072240	94.038057	-104.653553	128.859219	10.286657	6.470538	-8.521257	5.094164	-133.651742	-83.787767	-22.193735	2.605186	61.353520	-13.112356	9.069051
3.016667	-3.810861	-2.919304	66.551590	0.273908	0.398801	0.929817	-1.781243	0.688396	18.694127	2.922905	0.051014	25.159809	-13.369355	0.000000	0.565989	-1.381937	-20.855022	10.374545	0.181070	34.270312	9.257573	0.000000	-0.194436	-0.410418	2.512491	-0.361087	-0.545856	2.669521	-0.319439	-0.997890	2.669521	-0.222221	-0.997890	2.198429	-0.180553	-0.836924	2.041399	-0.111101	-0.635737	1.884368	-1.388837	-4.642730	13.973720	0.000000	0.000000	10.934104	12.182366	-8.930956	94.308627	-104.676827	128.765802	10.281927	6.412516	-8.598971	5.503443	-133.309484	-83.811545	-18.104106	2.530008	64.907673	-13.439529	10.734702
